<?xml version='1.0' encoding='utf-8'?>
<!-- Generator: Adobe Illustrator 25.2.1, SVG Export Plug-In . SVG Version: 6.00 Build 0)  -->
<svg id="Layer_1" xmlns="http://www.w3.org/2000/svg" xml:space="preserve" version="1.1" x="0px" xmlns:xlink="http://www.w3.org/1999/xlink" viewBox="0 0 64 64" y="0px" style="enable-background:new 0 0 64 64;">
 <style type="text/css">&#xd;
	.st0{fill:none;}&#xd;
	.st1{fill:none;stroke:#141414;stroke-width:2;stroke-miterlimit:10;}&#xd;
</style>
 <g id="quadrato_centratore">
  <rect class="st0" height="64" width="64"/>
 </g>
 <g id="icona">
  <path class="st1" d="M44,22.4H20c-2.2,0-4,1.7-4,3.9c0,0,0,0.1,0,0.1v11.1c0,2.2,1.7,4,3.9,4c0,0,0.1,0,0.1,0h5.8&#xd;&#xa;&#x9;&#x9;c1.1,0,2.1-0.6,2.7-1.5l1.8-4.7c0.4-1,1.5-1.4,2.4-1.1c0.5,0.2,0.9,0.6,1.1,1.1l1.8,4.7c0.6,0.9,1.6,1.5,2.7,1.5H44&#xd;&#xa;&#x9;&#x9;c2.2,0,4-1.8,4-4c0,0,0,0,0-0.1V26.5C48,24.2,46.3,22.4,44,22.4C44,22.4,44,22.4,44,22.4z M24.7,33c-0.7,0-1.3-0.6-1.4-1.3&#xd;&#xa;&#x9;&#x9;c0-0.7,0.6-1.3,1.3-1.4c0.7,0,1.3,0.6,1.4,1.3C26,32.4,25.4,33,24.7,33C24.7,33,24.7,33,24.7,33z M39.6,33c-0.7,0-1.3-0.6-1.3-1.3&#xd;&#xa;&#x9;&#x9;c0-0.7,0.6-1.3,1.3-1.3s1.3,0.6,1.3,1.3c0,0,0,0,0,0C40.9,32.4,40.4,33,39.6,33C39.6,33,39.6,33,39.6,33z"/>
 </g>
</svg>
