<svg xmlns="http://www.w3.org/2000/svg" viewBox="0 0 64 64">
 <g id="quadrato_centratore" data-name="quadrato centratore">
  <rect height="64" width="64" style="fill:none"/>
 </g>
 <g id="icona">
  <path d="M44,22.4H20.05A4,4,0,0,0,16,26.45v11.1a4,4,0,0,0,4.05,4.05h5.8a3.13,3.13,0,0,0,2.67-1.49l1.77-4.7a1.87,1.87,0,0,1,3.49,0l1.78,4.7a3.11,3.11,0,0,0,2.66,1.49H44a4,4,0,0,0,4-4.05V26.45A4,4,0,0,0,44,22.4ZM24.68,33A1.34,1.34,0,1,1,26,31.64,1.33,1.33,0,0,1,24.68,33Zm14.93,0a1.34,1.34,0,1,1,1.33-1.34A1.33,1.33,0,0,1,39.61,33Z" style="fill:none;stroke:#000000;stroke-miterlimit:10;stroke-width:4px; stroke-opacity:1"/>
 </g>
</svg>
