<?xml version="1.0" encoding="utf-8"?>
<!-- Generator: Adobe Illustrator 25.2.1, SVG Export Plug-In . SVG Version: 6.00 Build 0)  -->
<svg version="1.1" id="Layer_1" xmlns="http://www.w3.org/2000/svg" xmlns:xlink="http://www.w3.org/1999/xlink" x="0px" y="0px"
	 viewBox="0 0 64 64" style="enable-background:new 0 0 64 64;" xml:space="preserve">
<style type="text/css">
	.st0{fill:#141414;}
	.st1{fill:none;stroke:#141414;stroke-width:2;stroke-miterlimit:10;}
</style>
<g id="icona">
	<path class="st0" d="M32,26.5c3.1,0,5.6,2.5,5.6,5.6s-2.5,5.6-5.6,5.6s-5.6-2.5-5.6-5.6S28.9,26.5,32,26.5L32,26.5 M32,24.3
		c-4.3,0-7.8,3.5-7.8,7.8S27.7,40,32,40s7.8-3.5,7.8-7.8S36.3,24.3,32,24.3L32,24.3z"/>
	<polygon class="st1" points="37.2,22.5 35.8,19.7 28.1,19.7 26.9,22.5 16.4,22.5 16.4,43.4 47.6,43.4 47.6,22.5 	"/>
</g>
</svg>
